<svg width="24" height="24" xmlns="http://www.w3.org/2000/svg" fill-rule="evenodd" clip-rule="evenodd"><path d="M18.305 20.418c-.992.615-2.16.97-3.411.97-3.588 0-6.5-2.919-6.5-6.514s2.912-6.513 6.5-6.513c3.587 0 6.5 2.918 6.5 6.513 0 1.254-.354 2.425-.967 3.419l3.573 3.58-2.121 2.126-3.574-3.581zm-8.904-.436c-3.216-.19-6.025-1.903-7.716-4.427l4.349-2.511c.38.493.849.914 1.383 1.237-.015.197-.023.396-.023.596 0 1.972.762 3.766 2.007 5.105zm5.493-9.592c2.484 0 4.5 2.02 4.5 4.509 0 2.489-2.016 4.509-4.5 4.509s-4.5-2.02-4.5-4.509c0-2.489 2.016-4.509 4.5-4.509zm-1.5 6.989h-1v-2.004h1v2.004zm2 0h-1v-3.006h1v3.006zm2 0h-1v-4.96h1v4.96zm-7.894-17.367v5.013c-2.525.251-4.5 2.384-4.5 4.975 0 .787.182 1.531.507 2.194l-4.336 2.503c-.747-1.401-1.171-3-1.171-4.697 0-5.351 4.213-9.727 9.5-9.988zm4.772 7.391c-.796-1.306-2.174-2.219-3.772-2.378v-5.013c5.077.251 9.164 4.296 9.48 9.356-1.337-1.236-3.124-1.991-5.086-1.991-.209 0-.417.009-.622.026z"/></svg>