<?xml version="1.0" encoding="utf-8"?>
<!-- Generator: Adobe Illustrator 26.2.1, SVG Export Plug-In . SVG Version: 6.00 Build 0)  -->
<svg version="1.1" id="레이어_1" xmlns="http://www.w3.org/2000/svg" xmlns:xlink="http://www.w3.org/1999/xlink" x="0px"
	 y="0px" viewBox="0 0 240 240" style="enable-background:new 0 0 240 240;" xml:space="preserve">
<style type="text/css">
	.st0{fill-rule:evenodd;clip-rule:evenodd;}
</style>
<path class="st0" d="M130,20h20v20h10v190l0,0V80l60,30v120l0,0v10H20v-10l0,0V120h70v110l0,0V40h10V20h20V0h10V20z M200,230v-20
	h-20v20H200z M70,230v-20H40v20H70z M140,230v-20h-30v20H140z M120,190V60h-10v130H120z M200,190v-10h-20v10H200z M40,190v-20H30v20
	H40z M80,190v-20H70v20H80z M60,190v-20H50v20H60z M140,190V60h-10v130H140z M200,170v-10h-20v10H200z M40,160v-20H30v20H40z
	 M60,160v-20H50v20H60z M80,160v-20H70v20H80z M200,150v-10h-20v10H200z M200,128.6v-10h-20v10H200z"/>
</svg>
